<?xml version="1.0" encoding="iso-8859-1"?>
<svg xmlns="http://www.w3.org/2000/svg" viewBox="0 0 283.922 283.922">
  <path fill="#fff" d="M266.422 0h-97.625c-9.65 0-17.5 7.85-17.5 17.5s7.85 17.5 17.5 17.5h55.377L131.8 127.374c-3.308 3.305-5.128 7.7-5.128 12.375s1.82 9.068 5.125 12.37c3.306 3.31 7.7 5.13 12.375 5.13 4.674 0 9.07-1.82 12.376-5.127l92.374-92.375v55.377c0 9.65 7.85 17.5 17.5 17.5s17.5-7.85 17.5-17.5V17.5c0-9.65-7.85-17.5-17.5-17.5z"/>
  <path fill="#fff" d="M201.137 253.922H30V82.785h128.71l30-30H15c-8.284 0-15 6.716-15 15v201.137c0 8.284 6.716 15 15 15h201.137c8.284 0 15-6.716 15-15V95.212l-30 30v128.71z"/>
</svg>
